<svg xmlns="http://www.w3.org/2000/svg" xmlns:xlink="http://www.w3.org/1999/xlink" width="500" zoomAndPan="magnify" viewBox="0 0 375 374.999991" height="500" preserveAspectRatio="xMidYMid meet" version="1.0"><defs><clipPath id="0a99178b42"><path d="M 34.921875 0 L 340.171875 0 L 340.171875 375 L 34.921875 375 Z M 34.921875 0 " clip-rule="nonzero"/></clipPath><clipPath id="6cb053550e"><path d="M 34.921875 0 L 235.171875 0 L 235.171875 375 L 34.921875 375 Z M 34.921875 0 " clip-rule="nonzero"/></clipPath></defs><g clip-path="url(#0a99178b42)"><path fill="#dba6a6" d="M 243.996094 0.171875 L 243.996094 139.21875 L 153.578125 139.316406 L 216.355469 235.492188 L 243.996094 235.347656 L 243.996094 374.785156 L 340.078125 374.785156 L 340.078125 0.171875 Z M 34.921875 374.785156 L 131 374.785156 L 131 0.507812 L 34.921875 0.507812 Z M 34.921875 374.785156 " fill-opacity="1" fill-rule="nonzero"/></g><g clip-path="url(#6cb053550e)"><path fill="#ebdac4" d="M 69.796875 28.070312 C 82.917969 30.710938 96.285156 28.421875 107.429688 21.800781 L 95.863281 48.171875 C 86.960938 55.070312 75.425781 57.730469 64.125 55.460938 C 53.25 53.273438 44.066406 46.742188 38.835938 37.519531 L 38.835938 8.820312 C 46.1875 18.640625 57.160156 25.527344 69.796875 28.070312 Z M 131.175781 51.582031 C 142.351562 59.136719 155.847656 62.054688 169.105469 59.957031 L 147.800781 80.070312 C 136.496094 83.320312 124.535156 81.46875 114.90625 74.957031 C 106.125 69.019531 100.519531 59.84375 99.453125 49.726562 L 111.132812 23.101562 C 113.890625 34.53125 120.960938 44.671875 131.175781 51.582031 Z M 179.128906 95.988281 C 186.378906 106.984375 197.621094 114.550781 210.667969 117.425781 L 182.839844 128.308594 C 171.089844 127.234375 160.792969 121.222656 154.550781 111.753906 C 148.851562 103.113281 147.398438 92.617188 150.515625 82.890625 L 172.101562 62.507812 C 170.058594 74.039062 172.496094 85.933594 179.128906 95.988281 Z M 205.578125 155.199219 C 208.007812 167.59375 215.269531 178.339844 225.875 185.542969 L 195.636719 185.542969 C 185.496094 180.4375 178.488281 171.4375 176.398438 160.769531 C 174.382812 150.496094 177.257812 140.023438 184.28125 131.949219 L 212.375 120.960938 C 205.703125 131.109375 203.230469 143.253906 205.578125 155.199219 Z M 205.578125 219.800781 C 204.996094 222.753906 204.710938 225.722656 204.710938 228.667969 C 204.710938 237.632812 207.359375 246.402344 212.382812 254.039062 L 184.28125 243.050781 C 177.261719 234.976562 174.382812 224.503906 176.398438 214.230469 C 178.488281 203.5625 185.496094 194.5625 195.636719 189.457031 L 225.875 189.457031 C 215.269531 196.660156 208.007812 207.40625 205.578125 219.800781 Z M 179.128906 279.011719 C 172.496094 289.066406 170.058594 300.960938 172.101562 312.492188 L 150.515625 292.109375 C 147.398438 282.382812 148.851562 271.886719 154.550781 263.246094 C 160.792969 253.777344 171.089844 247.765625 182.839844 246.6875 L 210.667969 257.574219 C 197.621094 260.449219 186.378906 268.015625 179.128906 279.011719 Z M 131.175781 323.417969 C 120.960938 330.328125 113.890625 340.46875 111.132812 351.898438 L 99.453125 325.273438 C 100.519531 315.15625 106.125 305.980469 114.90625 300.042969 C 124.535156 293.53125 136.496094 291.679688 147.800781 294.929688 L 169.105469 315.046875 C 155.847656 312.945312 142.351562 315.863281 131.175781 323.417969 Z M 69.796875 346.929688 C 57.160156 349.472656 46.1875 356.359375 38.835938 366.179688 L 38.835938 337.480469 C 44.066406 328.257812 53.25 321.726562 64.125 319.539062 C 75.425781 317.265625 86.960938 319.929688 95.863281 326.832031 L 107.429688 353.199219 C 96.285156 346.578125 82.917969 344.289062 69.796875 346.929688 Z M 38.835938 301.617188 C 42.753906 294.78125 49.585938 289.941406 57.679688 288.3125 C 66.09375 286.621094 74.683594 288.585938 81.328125 293.695312 L 92.972656 320.242188 C 84.109375 315.296875 73.640625 313.636719 63.351562 315.703125 C 53.445312 317.695312 44.808594 322.976562 38.835938 330.503906 Z M 38.835938 265.75 C 41.441406 261.304688 45.929688 258.15625 51.230469 257.085938 C 56.765625 255.976562 62.402344 257.246094 66.792969 260.5625 L 78.535156 287.332031 C 71.96875 284.019531 64.375 282.976562 56.90625 284.476562 C 49.722656 285.921875 43.398438 289.609375 38.835938 294.878906 Z M 38.835938 229.914062 C 40.125 227.839844 42.261719 226.371094 44.789062 225.863281 C 47.441406 225.328125 50.136719 225.914062 52.265625 227.449219 L 64.164062 254.566406 C 59.910156 252.792969 55.148438 252.308594 50.460938 253.25 C 45.957031 254.15625 41.929688 256.316406 38.835938 259.402344 Z M 38.835938 196.832031 L 49.941406 222.148438 C 48.03125 221.679688 46.011719 221.621094 44.015625 222.023438 C 42.105469 222.410156 40.347656 223.195312 38.835938 224.285156 Z M 38.835938 150.714844 C 40.347656 151.804688 42.105469 152.589844 44.015625 152.976562 C 46.011719 153.378906 48.03125 153.320312 49.941406 152.851562 L 38.835938 178.167969 Z M 38.835938 115.597656 C 41.929688 118.683594 45.957031 120.84375 50.460938 121.75 C 55.148438 122.691406 59.90625 122.207031 64.164062 120.433594 L 52.265625 147.550781 C 50.136719 149.085938 47.441406 149.671875 44.789062 149.136719 C 42.261719 148.628906 40.125 147.160156 38.835938 145.085938 Z M 38.835938 80.125 C 43.394531 85.390625 49.722656 89.078125 56.90625 90.523438 C 64.375 92.023438 71.96875 90.980469 78.535156 87.667969 L 66.792969 114.4375 C 62.402344 117.753906 56.765625 119.023438 51.230469 117.914062 C 45.925781 116.847656 41.441406 113.695312 38.835938 109.25 Z M 147.75 142.035156 C 139.003906 141.203125 131.351562 136.71875 126.703125 129.671875 C 122.472656 123.257812 121.378906 115.476562 123.660156 108.25 L 145.386719 87.730469 C 144.0625 96.78125 146.089844 106.035156 151.28125 113.90625 C 156.964844 122.527344 165.664062 128.546875 175.78125 131.074219 Z M 157.652344 185.542969 C 150.128906 181.722656 144.933594 175.023438 143.375 167.09375 C 141.878906 159.46875 144 151.6875 149.191406 145.675781 L 177.480469 134.609375 C 172.515625 142.671875 170.722656 152.171875 172.554688 161.523438 C 174.460938 171.234375 180.007812 179.691406 188.113281 185.542969 Z M 149.191406 229.324219 C 144.003906 223.308594 141.878906 215.53125 143.375 207.90625 C 144.933594 199.976562 150.128906 193.277344 157.652344 189.457031 L 188.113281 189.457031 C 180.007812 195.308594 174.460938 203.765625 172.554688 213.476562 C 172.082031 215.886719 171.851562 218.300781 171.851562 220.703125 C 171.851562 227.625 173.789062 234.402344 177.472656 240.386719 Z M 123.660156 266.75 C 121.378906 259.523438 122.472656 251.742188 126.703125 245.328125 C 131.351562 238.28125 139.003906 233.796875 147.75 232.964844 L 175.78125 243.925781 C 165.664062 246.453125 156.964844 252.472656 151.28125 261.09375 C 146.089844 268.964844 144.0625 278.21875 145.390625 287.269531 Z M 77.984375 246.804688 C 82.699219 243.617188 88.546875 242.6875 94.09375 244.21875 L 115.730469 264.644531 C 108.171875 263.976562 100.613281 265.878906 94.253906 270.183594 C 88.457031 274.101562 84.269531 279.6875 82.234375 286.027344 L 70.382812 259.007812 C 70.972656 254.117188 73.71875 249.691406 77.984375 246.804688 Z M 59.523438 220.1875 C 61.78125 218.660156 64.570312 218.1875 67.238281 218.855469 L 89.183594 239.582031 C 84.449219 239.507812 79.785156 240.863281 75.792969 243.566406 C 72.164062 246.015625 69.429688 249.394531 67.859375 253.253906 L 55.859375 225.898438 C 56.199219 223.613281 57.507812 221.546875 59.523438 220.1875 Z M 62.929688 214.789062 C 60.945312 215.078125 59.03125 215.792969 57.328125 216.945312 C 55.796875 217.980469 54.550781 219.304688 53.628906 220.8125 L 42.542969 195.539062 Z M 71.996094 203.335938 C 70.304688 204.320312 68.84375 205.667969 67.746094 207.335938 C 66.753906 208.835938 66.136719 210.492188 65.882812 212.199219 L 45.542969 192.992188 Z M 73.496094 194.503906 C 73.34375 195.269531 73.273438 196.039062 73.273438 196.804688 C 73.273438 197.8125 73.40625 198.8125 73.660156 199.785156 L 47.253906 189.457031 L 75.785156 189.457031 C 74.65625 190.929688 73.859375 192.644531 73.496094 194.503906 Z M 106.515625 200.828125 C 106.257812 202.140625 106.128906 203.460938 106.128906 204.769531 C 106.128906 207.683594 106.757812 210.546875 107.96875 213.203125 L 79.03125 201.886719 C 77.5 199.988281 76.878906 197.601562 77.335938 195.257812 C 77.820312 192.796875 79.410156 190.710938 81.710938 189.457031 L 112.890625 189.457031 C 109.617188 192.488281 107.378906 196.421875 106.515625 200.828125 Z M 114.097656 215.601562 C 110.746094 211.644531 109.378906 206.566406 110.355469 201.582031 C 111.375 196.390625 114.761719 191.996094 119.667969 189.457031 L 150.414062 189.457031 C 144.773438 193.925781 140.917969 200.113281 139.535156 207.152344 C 139.171875 209.011719 138.992188 210.878906 138.992188 212.734375 C 138.992188 217.632812 140.246094 222.4375 142.644531 226.765625 Z M 98.859375 227.410156 C 101.90625 222.78125 106.921875 219.828125 112.65625 219.238281 L 140.945312 230.304688 C 133.738281 232.4375 127.558594 236.921875 123.4375 243.171875 C 119.675781 248.875 118.0625 255.519531 118.71875 262.085938 L 96.800781 241.390625 C 95.359375 236.667969 96.09375 231.597656 98.859375 227.410156 Z M 71.011719 209.488281 C 72.46875 207.277344 74.851562 205.855469 77.585938 205.523438 L 106.277344 216.742188 C 101.90625 218.398438 98.175781 221.332031 95.589844 225.253906 C 93.238281 228.816406 92.074219 232.902344 92.164062 237.011719 L 69.960938 216.046875 C 69.347656 213.820312 69.714844 211.457031 71.011719 209.488281 Z M 57.332031 158.054688 C 59.03125 159.207031 60.945312 159.925781 62.929688 160.210938 L 42.542969 179.460938 L 53.628906 154.1875 C 54.550781 155.695312 55.796875 157.019531 57.332031 158.054688 Z M 75.792969 131.4375 C 79.785156 134.136719 84.449219 135.492188 89.183594 135.417969 L 67.238281 156.140625 C 64.570312 156.816406 61.78125 156.339844 59.523438 154.8125 C 57.507812 153.453125 56.199219 151.386719 55.859375 149.101562 L 67.859375 121.746094 C 69.429688 125.605469 72.164062 128.984375 75.792969 131.4375 Z M 112.65625 155.761719 C 106.921875 155.171875 101.90625 152.21875 98.859375 147.589844 C 96.09375 143.402344 95.359375 138.332031 96.800781 133.609375 L 118.71875 112.914062 C 118.0625 119.484375 119.675781 126.125 123.4375 131.828125 C 127.558594 138.078125 133.738281 142.5625 140.945312 144.695312 Z M 110.355469 173.417969 C 109.378906 168.4375 110.746094 163.355469 114.097656 159.398438 L 142.648438 148.234375 C 139.339844 154.199219 138.207031 161.070312 139.535156 167.847656 C 140.917969 174.886719 144.773438 181.074219 150.414062 185.542969 L 119.667969 185.542969 C 114.761719 183.003906 111.375 178.609375 110.355469 173.417969 Z M 77.335938 179.742188 C 76.878906 177.394531 77.5 175.011719 79.03125 173.113281 L 107.96875 161.796875 C 106.214844 165.644531 105.6875 169.933594 106.515625 174.171875 C 107.378906 178.578125 109.617188 182.511719 112.890625 185.542969 L 81.710938 185.542969 C 79.410156 184.292969 77.820312 182.203125 77.335938 179.742188 Z M 73.664062 175.214844 C 73.21875 176.917969 73.144531 178.714844 73.496094 180.496094 C 73.859375 182.359375 74.65625 184.070312 75.785156 185.542969 L 47.253906 185.542969 Z M 67.746094 167.664062 C 68.84375 169.332031 70.304688 170.679688 71.996094 171.664062 L 45.542969 182.007812 L 65.886719 162.800781 C 66.140625 164.507812 66.753906 166.164062 67.746094 167.664062 Z M 69.960938 158.953125 L 92.164062 137.988281 C 92.078125 142.097656 93.242188 146.183594 95.589844 149.746094 C 98.175781 153.667969 101.90625 156.601562 106.277344 158.257812 L 77.585938 169.476562 C 74.851562 169.144531 72.46875 167.722656 71.011719 165.511719 C 69.714844 163.542969 69.347656 161.179688 69.960938 158.953125 Z M 115.730469 110.355469 L 94.09375 130.78125 C 88.546875 132.3125 82.699219 131.382812 77.984375 128.195312 C 73.71875 125.3125 70.972656 120.882812 70.382812 115.992188 L 82.238281 88.972656 C 84.269531 95.3125 88.457031 100.898438 94.253906 104.816406 C 100.613281 109.121094 108.171875 111.023438 115.730469 110.355469 Z M 112.714844 296.800781 C 104.714844 302.210938 99.089844 310.0625 96.675781 318.9375 L 84.917969 292.140625 C 85.746094 284.636719 89.921875 277.835938 96.445312 273.425781 C 103.617188 268.574219 112.523438 267.1875 120.953125 269.578125 L 142.398438 289.828125 C 131.992188 288.464844 121.476562 290.875 112.714844 296.800781 Z M 142.398438 85.171875 L 120.953125 105.421875 C 112.527344 107.8125 103.617188 106.425781 96.445312 101.574219 C 89.921875 97.164062 85.746094 90.363281 84.917969 82.859375 L 96.675781 56.0625 C 99.089844 64.9375 104.714844 72.789062 112.714844 78.199219 C 121.476562 84.125 131.992188 86.535156 142.398438 85.171875 Z M 38.835938 44.496094 C 44.808594 52.023438 53.445312 57.304688 63.351562 59.296875 C 73.640625 61.363281 84.109375 59.703125 92.972656 54.757812 L 81.328125 81.304688 C 74.683594 86.414062 66.09375 88.378906 57.679688 86.6875 C 49.585938 85.058594 42.753906 80.21875 38.835938 73.382812 Z M 35.164062 1.242188 C 35.085938 1.386719 35.003906 1.527344 34.921875 1.667969 L 34.921875 373.332031 C 35.003906 373.472656 35.085938 373.613281 35.164062 373.757812 C 35.507812 374.382812 36.164062 374.773438 36.878906 374.773438 C 37.59375 374.773438 38.25 374.382812 38.59375 373.757812 C 45.089844 361.925781 56.746094 353.546875 70.570312 350.765625 C 84.910156 347.882812 99.5625 351.335938 110.765625 360.242188 C 111.328125 360.6875 112.09375 360.789062 112.753906 360.507812 C 113.414062 360.226562 113.867188 359.601562 113.933594 358.886719 C 115.109375 345.964844 122.191406 334.21875 133.371094 326.660156 C 145.574219 318.40625 160.785156 316.128906 175.09375 320.410156 C 175.792969 320.621094 176.550781 320.421875 177.0625 319.898438 C 177.570312 319.375 177.742188 318.609375 177.511719 317.914062 C 173.359375 305.558594 175.144531 292.164062 182.394531 281.164062 C 190.3125 269.160156 203.417969 261.578125 218.355469 260.367188 C 219.097656 260.308594 219.738281 259.832031 220.015625 259.144531 C 220.292969 258.453125 220.152344 257.667969 219.660156 257.113281 C 210.585938 246.9375 206.851562 233.613281 209.417969 220.550781 C 212.074219 207.011719 221.03125 195.605469 233.996094 189.257812 C 234.667969 188.929688 235.09375 188.246094 235.09375 187.5 C 235.09375 186.753906 234.667969 186.070312 233.996094 185.742188 C 221.03125 179.394531 212.074219 167.988281 209.417969 154.449219 C 206.855469 141.382812 210.589844 128.058594 219.660156 117.886719 C 220.152344 117.332031 220.292969 116.546875 220.015625 115.855469 C 219.738281 115.167969 219.097656 114.691406 218.355469 114.632812 C 203.417969 113.421875 190.3125 105.839844 182.394531 93.835938 C 175.144531 82.835938 173.359375 69.441406 177.511719 57.085938 C 177.742188 56.394531 177.570312 55.625 177.0625 55.101562 C 176.550781 54.578125 175.792969 54.378906 175.09375 54.589844 C 160.785156 58.871094 145.574219 56.59375 133.371094 48.339844 C 122.191406 40.78125 115.109375 29.035156 113.933594 16.113281 C 113.867188 15.398438 113.414062 14.773438 112.753906 14.492188 C 112.09375 14.210938 111.328125 14.3125 110.765625 14.757812 C 99.5625 23.664062 84.910156 27.121094 70.570312 24.234375 C 56.746094 21.453125 45.089844 13.074219 38.59375 1.242188 C 38.25 0.617188 37.59375 0.226562 36.878906 0.226562 C 36.164062 0.226562 35.507812 0.617188 35.164062 1.242188 " fill-opacity="1" fill-rule="nonzero"/></g></svg>
